<svg width="476" height="121" viewBox="0 0 476 121" fill="none" xmlns="http://www.w3.org/2000/svg">
<path d="M57.1064 31.0608C63.8096 31.0608 69.8744 32.444 75.3008 35.2104C80.7272 37.8704 84.9832 42.02 88.0688 47.6591C91.2608 53.2983 92.8568 60.5868 92.8568 69.5244V119H62.5328V74.472C62.5328 68.3008 61.256 63.832 58.7024 61.0656C56.2552 58.1928 52.7972 56.7564 48.3284 56.7564C45.1364 56.7564 42.2104 57.5012 39.5504 58.9908C36.8904 60.374 34.8156 62.5552 33.326 65.5344C31.8364 68.5136 31.0916 72.3972 31.0916 77.1852V119H0.767578V0.577148H31.0916V57.0756L24.0692 49.8936C27.3676 43.616 31.8896 38.9343 37.6352 35.8487C43.3808 32.6568 49.8712 31.0608 57.1064 31.0608Z" fill="#253C76"/>
<path d="M156.398 120.437C146.928 120.437 138.522 118.522 131.181 114.691C123.839 110.861 118.04 105.594 113.784 98.8908C109.635 92.0812 107.56 84.3139 107.56 75.5891C107.56 66.8644 109.635 59.1504 113.784 52.4472C118.04 45.744 123.839 40.5304 131.181 36.8064C138.522 32.976 146.928 31.0608 156.398 31.0608C165.867 31.0608 174.273 32.976 181.614 36.8064C189.062 40.5304 194.861 45.744 199.011 52.4472C203.16 59.1504 205.235 66.8644 205.235 75.5891C205.235 84.3139 203.16 92.0812 199.011 98.8908C194.861 105.594 189.062 110.861 181.614 114.691C174.273 118.522 165.867 120.437 156.398 120.437ZM156.398 96.3372C159.909 96.3372 162.994 95.5392 165.654 93.9432C168.421 92.3472 170.602 90.0064 172.198 86.9208C173.794 83.7288 174.592 79.9516 174.592 75.5891C174.592 71.2267 173.794 67.556 172.198 64.5768C170.602 61.4912 168.421 59.1504 165.654 57.5544C162.994 55.9584 159.909 55.1604 156.398 55.1604C152.993 55.1604 149.907 55.9584 147.141 57.5544C144.481 59.1504 142.3 61.4912 140.597 64.5768C139.001 67.556 138.203 71.2267 138.203 75.5891C138.203 79.9516 139.001 83.7288 140.597 86.9208C142.3 90.0064 144.481 92.3472 147.141 93.9432C149.907 95.5392 152.993 96.3372 156.398 96.3372Z" fill="#253C76"/>
<path d="M331.96 31.0608C338.663 31.0608 344.622 32.444 349.835 35.2104C355.155 37.8704 359.305 42.02 362.284 47.6591C365.37 53.2983 366.912 60.5868 366.912 69.5244V119H336.588V74.472C336.588 68.3008 335.418 63.832 333.077 61.0656C330.736 58.1928 327.544 56.7564 323.501 56.7564C320.628 56.7564 318.022 57.448 315.681 58.8312C313.34 60.2144 311.531 62.3424 310.254 65.2152C308.978 67.9816 308.339 71.5992 308.339 76.068V119H278.015V74.472C278.015 68.3008 276.845 63.832 274.504 61.0656C272.27 58.1928 269.078 56.7564 264.928 56.7564C261.949 56.7564 259.289 57.448 256.948 58.8312C254.714 60.2144 252.905 62.3424 251.522 65.2152C250.245 67.9816 249.606 71.5992 249.606 76.068V119H219.282V32.4971H248.17V56.5967L242.424 49.734C245.616 43.5628 249.979 38.9343 255.512 35.8487C261.044 32.6568 267.216 31.0608 274.025 31.0608C281.792 31.0608 288.602 33.0824 294.454 37.1256C300.412 41.0624 304.402 47.2336 306.424 55.6392L296.529 53.5644C299.614 46.542 304.243 41.0624 310.414 37.1256C316.692 33.0824 323.874 31.0608 331.96 31.0608Z" fill="#253C76"/>
<path d="M432.469 120.437C422.255 120.437 413.317 118.522 405.657 114.691C398.102 110.754 392.197 105.434 387.941 98.7312C383.791 91.9216 381.717 84.2076 381.717 75.5891C381.717 66.9707 383.738 59.31 387.781 52.6068C391.931 45.7972 397.623 40.5304 404.859 36.8064C412.094 32.976 420.233 31.0608 429.277 31.0608C437.789 31.0608 445.557 32.8164 452.579 36.3276C459.601 39.7324 465.187 44.7864 469.337 51.4896C473.487 58.1928 475.561 66.3323 475.561 75.9083C475.561 76.9723 475.508 78.196 475.402 79.5792C475.295 80.9624 475.189 82.2392 475.083 83.4096H406.614V67.4495H458.963L447.472 71.9184C447.578 67.9816 446.833 64.5768 445.237 61.704C443.748 58.8312 441.62 56.5968 438.853 55.0008C436.193 53.4048 433.055 52.6068 429.437 52.6068C425.819 52.6068 422.627 53.4048 419.861 55.0008C417.201 56.5968 415.126 58.8843 413.637 61.8635C412.147 64.7363 411.402 68.1411 411.402 72.0779V76.7064C411.402 80.9624 412.253 84.6332 413.956 87.7188C415.765 90.8044 418.318 93.1983 421.617 94.9007C424.915 96.4967 428.852 97.2948 433.427 97.2948C437.683 97.2948 441.301 96.7096 444.28 95.5392C447.365 94.2624 450.398 92.3472 453.377 89.7936L469.337 106.392C465.187 110.967 460.08 114.478 454.015 116.926C447.951 119.266 440.769 120.437 432.469 120.437Z" fill="#253C76"/>
</svg>
