<svg width="600" height="600" viewBox="0 0 600 600" fill="none" xmlns="http://www.w3.org/2000/svg">
<g clip-path="url(#clip0_312_106)">
<rect width="600" height="600" fill="#1A8291"/>
<path fill-rule="evenodd" clip-rule="evenodd" d="M600 600L6.01977e-05 6.18726e-05L0.00012207 0L600 600L600 600Z" fill="white"/>
<path fill-rule="evenodd" clip-rule="evenodd" d="M0.00012207 -10.6064L610.607 600L600 610.607L-10.6065 0.000218264L0.00012207 -10.6064Z" fill="white"/>
<path d="M399.5 279.6C395.5 279.6 392.5 279 390.5 277.8C388.7 276.8 387.5 275.3 386.9 273.3C386.3 271.3 386 268.9 386 266.1V83.4C386 80.8 386.3 78.5 386.9 76.5C387.7 74.3 389 72.7 390.8 71.7C392.8 70.7 395.8 70.2 399.8 70.2C403.8 70.2 406.7 70.8 408.5 72C410.5 73 411.8 74.5 412.4 76.5C413 78.5 413.3 80.9 413.3 83.7V156.3L501.8 74.4C504.2 72 506.4 70.4 508.4 69.6C510.4 68.8 512.4 68.8 514.4 69.6C516.4 70.4 518.6 72 521 74.4C524.8 78.2 526.6 81.5 526.4 84.3C526.4 86.9 524.6 89.9 521 93.3L431.6 174.6L522.2 256.5C526 260.1 527.9 263.3 527.9 266.1C527.9 268.9 526 272.1 522.2 275.7C519.6 278.1 517.3 279.7 515.3 280.5C513.3 281.3 511.3 281.3 509.3 280.5C507.5 279.7 505.4 278 503 275.4L413.3 192.9V266.4C413.3 269.2 413 271.6 412.4 273.6C411.8 275.6 410.5 277.1 408.5 278.1C406.5 279.1 403.5 279.6 399.5 279.6Z" fill="white"/>
<path d="M161.7 534.4C146.1 534.4 132.1 531.9 119.7 526.9C107.3 521.7 96.6 514.4 87.6 505C78.8 495.4 72 483.9 67.2 470.5C62.4 457.1 60 442.2 60 425.8C60 410.2 62.4 396.1 67.2 383.5C72.2 370.9 79.3 360.1 88.5 351.1C97.7 342.1 108.7 335.1 121.5 330.1C134.3 324.9 148.7 322.2 164.7 322C170.9 322 177.2 322.6 183.6 323.8C190.2 325 196.5 326.7 202.5 328.9C208.5 331.1 213.9 333.7 218.7 336.7C222.1 338.9 225 341.2 227.4 343.6C229.8 345.8 231.1 348.1 231.3 350.5C231.5 351.7 231.3 353.2 230.7 355C230.1 356.8 229.3 358.5 228.3 360.1C226.7 362.5 224.9 364.3 222.9 365.5C221.1 366.5 219.3 367 217.5 367C216.7 367 215.3 366.5 213.3 365.5C211.3 364.5 208.8 363 205.8 361C202.4 359 198.4 357.1 193.8 355.3C189.4 353.5 184.6 352.1 179.4 351.1C174.2 350.1 168.8 349.6 163.2 349.6C147.8 349.6 134.4 352.7 123 358.9C111.6 365.1 102.8 374 96.6 385.6C90.6 397.2 87.5 410.9 87.3 426.7C87.5 443.1 90.7 457.3 96.9 469.3C103.1 481.3 111.8 490.6 123 497.2C134.4 503.8 147.7 507.1 162.9 507.1C167.9 507.1 173 506.7 178.2 505.9C183.4 505.1 188.5 504 193.5 502.6C198.7 501 203.5 499.1 207.9 496.9V439H155.4C152.8 439 150.5 438.7 148.5 438.1C146.7 437.5 145.3 436.3 144.3 434.5C143.5 432.7 143.1 430 143.1 426.4C143.1 422.8 143.6 420.1 144.6 418.3C145.6 416.5 147 415.3 148.8 414.7C150.6 414.1 152.8 413.8 155.4 413.8H220.5C224.5 413.8 227.5 414.5 229.5 415.9C231.5 417.3 232.9 419.1 233.7 421.3C234.7 423.3 235.2 425.8 235.2 428.8V502.6C235.2 505.8 233.4 509.2 229.8 512.8C226.4 516.2 221.5 519.4 215.1 522.4C210.5 524.8 205.3 526.9 199.5 528.7C193.9 530.5 187.9 531.9 181.5 532.9C175.1 533.9 168.5 534.4 161.7 534.4Z" fill="white"/>
</g>
<rect x="10" y="10" width="580" height="580" stroke="white" stroke-width="20"/>
<defs>
<clipPath id="clip0_312_106">
<rect width="600" height="600" fill="white"/>
</clipPath>
</defs>
</svg>
